<svg width="300" height="423" viewBox="0 0 300 423" fill="none" xmlns="http://www.w3.org/2000/svg">
<rect width="300" height="423" fill="#27694D"/>
<path d="M149.5 172.958V280.875" stroke="#F8F6F1" stroke-width="10" stroke-linecap="round" stroke-linejoin="round"/>
<path d="M80.125 257.75C78.0806 257.75 76.12 256.938 74.6744 255.492C73.2288 254.047 72.4167 252.086 72.4167 250.042V149.833C72.4167 147.789 73.2288 145.828 74.6744 144.383C76.12 142.937 78.0806 142.125 80.125 142.125H118.667C126.844 142.125 134.687 145.374 140.469 151.156C146.252 156.938 149.5 164.781 149.5 172.958C149.5 164.781 152.748 156.938 158.531 151.156C164.313 145.374 172.156 142.125 180.333 142.125H218.875C220.919 142.125 222.88 142.937 224.326 144.383C225.771 145.828 226.583 147.789 226.583 149.833V250.042C226.583 252.086 225.771 254.047 224.326 255.492C222.88 256.938 220.919 257.75 218.875 257.75H172.625C166.492 257.75 160.61 260.187 156.273 264.523C151.937 268.86 149.5 274.742 149.5 280.875C149.5 274.742 147.063 268.86 142.727 264.523C138.39 260.187 132.508 257.75 126.375 257.75H80.125Z" stroke="#F8F6F1" stroke-width="10" stroke-linecap="round" stroke-linejoin="round"/>
</svg>
