<svg width="300" height="300" viewBox="0 0 300 300" fill="none" xmlns="http://www.w3.org/2000/svg">
<rect width="300" height="300" fill="#27694D"/>
<path d="M150.5 111.958V219.875" stroke="#F8F6F1" stroke-width="10" stroke-linecap="round" stroke-linejoin="round"/>
<path d="M81.125 196.75C79.0806 196.75 77.12 195.938 75.6744 194.492C74.2288 193.047 73.4167 191.086 73.4167 189.042V88.8333C73.4167 86.7889 74.2288 84.8283 75.6744 83.3827C77.12 81.9372 79.0806 81.125 81.125 81.125H119.667C127.844 81.125 135.687 84.3735 141.469 90.1559C147.252 95.9383 150.5 103.781 150.5 111.958C150.5 103.781 153.748 95.9383 159.531 90.1559C165.313 84.3735 173.156 81.125 181.333 81.125H219.875C221.919 81.125 223.88 81.9372 225.326 83.3827C226.771 84.8283 227.583 86.7889 227.583 88.8333V189.042C227.583 191.086 226.771 193.047 225.326 194.492C223.88 195.938 221.919 196.75 219.875 196.75H173.625C167.492 196.75 161.61 199.187 157.273 203.523C152.937 207.86 150.5 213.742 150.5 219.875C150.5 213.742 148.063 207.86 143.727 203.523C139.39 199.187 133.508 196.75 127.375 196.75H81.125Z" stroke="#F8F6F1" stroke-width="10" stroke-linecap="round" stroke-linejoin="round"/>
</svg>
